<?xml version="1.0" encoding="UTF-8" standalone="no"?><!DOCTYPE svg PUBLIC "-//W3C//DTD SVG 1.1//EN" "http://www.w3.org/Graphics/SVG/1.1/DTD/svg11.dtd"><svg width="100%" height="100%" viewBox="0 0 1701 426" version="1.1" xmlns="http://www.w3.org/2000/svg" xmlns:xlink="http://www.w3.org/1999/xlink" xml:space="preserve" xmlns:serif="http://www.serif.com/" style="fill-rule:evenodd;clip-rule:evenodd;stroke-linecap:round;stroke-linejoin:round;stroke-miterlimit:1.5;"><g><g><g><path d="M105.899,295.228l101.51,-174.737" style="fill:none;stroke:#7fb8e3;stroke-width:15.4px;"/><path d="M70.086,213.384l82.674,1.178" style="fill:none;stroke:#7fb8e3;stroke-width:15.4px;"/><g><path d="M59,207.014c3.535,-6.085 11.373,-8.171 17.491,-4.655c6.119,3.516 8.216,11.311 4.681,17.396c-3.535,6.085 -11.373,8.171 -17.491,4.655c-6.119,-3.516 -8.216,-11.311 -4.681,-17.396Z" style="fill:#5279ba;"/></g><g><path d="M94.813,288.858c3.535,-6.085 11.373,-8.171 17.491,-4.655c6.119,3.516 8.216,11.311 4.681,17.396c-3.535,6.085 -11.373,8.171 -17.491,4.655c-6.119,-3.516 -8.216,-11.311 -4.681,-17.396Z" style="fill:#5279ba;"/></g><g><path d="M141.674,208.192c3.535,-6.085 11.373,-8.171 17.491,-4.655c6.119,3.516 8.216,11.311 4.681,17.396c-3.535,6.085 -11.373,8.171 -17.491,4.655c-6.119,-3.516 -8.216,-11.311 -4.681,-17.396Z" style="fill:#5279ba;"/></g></g><g><path d="M106.46,295.228l101.51,-174.737" style="fill:none;stroke:#7fb8e3;stroke-width:15.4px;"/><path d="M70.647,213.384l82.674,1.178" style="fill:none;stroke:#7fb8e3;stroke-width:15.4px;"/><g><path d="M59.561,207.014c3.535,-6.085 11.373,-8.171 17.491,-4.655c6.119,3.516 8.216,11.311 4.681,17.396c-3.535,6.085 -11.373,8.171 -17.491,4.655c-6.119,-3.516 -8.216,-11.311 -4.681,-17.396Z" style="fill:#5279ba;"/></g><g><path d="M95.374,288.858c3.535,-6.085 11.373,-8.171 17.491,-4.655c6.119,3.516 8.216,11.311 4.681,17.396c-3.535,6.085 -11.373,8.171 -17.491,4.655c-6.119,-3.516 -8.216,-11.311 -4.681,-17.396Z" style="fill:#5279ba;"/></g><g><path d="M142.235,208.192c3.535,-6.085 11.373,-8.171 17.491,-4.655c6.119,3.516 8.216,11.311 4.681,17.396c-3.535,6.085 -11.373,8.171 -17.491,4.655c-6.119,-3.516 -8.216,-11.311 -4.681,-17.396Z" style="fill:#5279ba;"/></g></g><g><path d="M114.856,119.378l202.908,0" style="fill:none;stroke:#7fb8e3;stroke-width:15.4px;"/><path d="M168.193,47.592l40.334,71.785" style="fill:none;stroke:#7fb8e3;stroke-width:15.4px;"/><g><ellipse cx="168.193" cy="47.592" rx="12.804" ry="12.734" style="fill:#5279ba;"/></g><g><ellipse cx="114.856" cy="119.378" rx="12.804" ry="12.734" style="fill:#5279ba;"/></g><g><ellipse cx="208.528" cy="119.378" rx="12.804" ry="12.734" style="fill:#5279ba;"/></g></g><g><path d="M270.616,37.599l101.524,174.729" style="fill:none;stroke:#7fb8e3;stroke-width:15.4px;"/><path d="M359.796,47.612l-42.312,70.65" style="fill:none;stroke:#7fb8e3;stroke-width:15.4px;"/><g><path d="M370.882,41.24c3.536,6.085 1.439,13.88 -4.679,17.397c-6.118,3.516 -13.956,1.431 -17.492,-4.654c-3.536,-6.085 -1.439,-13.88 4.679,-17.397c6.118,-3.516 13.956,-1.431 17.492,4.654Z" style="fill:#5279ba;"/></g><g><path d="M281.702,31.228c3.536,6.085 1.439,13.88 -4.679,17.397c-6.118,3.516 -13.956,1.431 -17.492,-4.654c-3.536,-6.085 -1.439,-13.88 4.679,-17.397c6.118,-3.516 13.956,-1.431 17.492,4.654Z" style="fill:#5279ba;"/></g><g><path d="M328.57,111.891c3.536,6.085 1.439,13.88 -4.679,17.397c-6.118,3.516 -13.956,1.431 -17.492,-4.654c-3.536,-6.085 -1.439,-13.88 4.679,-17.397c6.118,-3.516 13.956,-1.431 17.492,4.654Z" style="fill:#5279ba;"/></g></g><g><path d="M419.494,130.159l-101.358,174.824" style="fill:none;stroke:#7fb8e3;stroke-width:15.4px;"/><path d="M455.378,211.973l-82.675,-1.107" style="fill:none;stroke:#7fb8e3;stroke-width:15.4px;"/><g><path d="M466.47,218.334c-3.53,6.088 -11.366,8.181 -17.487,4.67c-6.122,-3.511 -8.226,-11.304 -4.696,-17.392c3.53,-6.088 11.366,-8.181 17.487,-4.67c6.122,3.511 8.226,11.304 4.696,17.392Z" style="fill:#5279ba;"/></g><g><path d="M430.586,136.52c-3.53,6.088 -11.366,8.181 -17.487,4.67c-6.122,-3.511 -8.226,-11.304 -4.696,-17.392c3.53,-6.088 11.366,-8.181 17.487,-4.67c6.122,3.511 8.226,11.304 4.696,17.392Z" style="fill:#5279ba;"/></g><g><path d="M383.795,217.227c-3.53,6.088 -11.366,8.181 -17.487,4.67c-6.122,-3.511 -8.226,-11.304 -4.696,-17.392c3.53,-6.088 11.366,-8.181 17.487,-4.67c6.122,3.511 8.226,11.304 4.696,17.392Z" style="fill:#5279ba;"/></g></g><g><path d="M413.225,306.416l-202.908,0.127" style="fill:none;stroke:#7fb8e3;stroke-width:15.4px;"/><path d="M359.934,378.235l-40.38,-71.76" style="fill:none;stroke:#7fb8e3;stroke-width:15.4px;"/><g><path d="M359.942,390.969c-7.066,0.004 -12.807,-5.698 -12.812,-12.726c-0.004,-7.028 5.729,-12.738 12.795,-12.742c7.066,-0.004 12.807,5.698 12.812,12.726c0.004,7.028 -5.729,12.738 -12.795,12.742Z" style="fill:#5279ba;"/></g><g><path d="M413.233,319.15c-7.066,0.004 -12.807,-5.698 -12.812,-12.726c-0.004,-7.028 5.729,-12.738 12.795,-12.742c7.066,-0.004 12.807,5.698 12.812,12.726c0.004,7.028 -5.729,12.738 -12.795,12.742Z" style="fill:#5279ba;"/></g><g><path d="M319.562,319.209c-7.066,0.004 -12.807,-5.698 -12.812,-12.726c-0.004,-7.028 5.729,-12.738 12.795,-12.742c7.066,-0.004 12.807,5.698 12.812,12.726c0.004,7.028 -5.729,12.738 -12.795,12.742Z" style="fill:#5279ba;"/></g></g><g><path d="M254.748,387.681l-101.494,-174.746" style="fill:none;stroke:#7fb8e3;stroke-width:15.4px;"/><path d="M165.57,377.653l42.324,-70.643" style="fill:none;stroke:#7fb8e3;stroke-width:15.4px;"/><g><path d="M154.483,384.022c-3.535,-6.086 -1.436,-13.881 4.682,-17.396c6.119,-3.515 13.956,-1.429 17.491,4.657c3.535,6.086 1.436,13.881 -4.682,17.396c-6.119,3.515 -13.956,1.429 -17.491,-4.657Z" style="fill:#5279ba;"/></g><g><path d="M243.662,394.05c-3.535,-6.086 -1.436,-13.881 4.682,-17.396c6.119,-3.515 13.956,-1.429 17.491,4.657c3.535,6.086 1.436,13.881 -4.682,17.396c-6.119,3.515 -13.956,1.429 -17.491,-4.657Z" style="fill:#5279ba;"/></g><g><path d="M196.807,313.379c-3.535,-6.086 -1.436,-13.881 4.682,-17.396c6.119,-3.515 13.956,-1.429 17.491,4.657c3.535,6.086 1.436,13.881 -4.682,17.396c-6.119,3.515 -13.956,1.429 -17.491,-4.657Z" style="fill:#5279ba;"/></g></g><g><path d="M141.674,208.192c3.535,-6.085 11.373,-8.171 17.491,-4.655c6.119,3.516 8.216,11.311 4.681,17.396c-3.535,6.085 -11.373,8.171 -17.491,4.655c-6.119,-3.516 -8.216,-11.311 -4.681,-17.396Z" style="fill:#5279ba;"/></g></g></g><g transform="matrix(400,0,0,400,487.347489,360.167484)"><path d="M0.096,-0l0,-0.728l0.08,0l0.332,0.494c0.009,0.014 0.019,0.03 0.031,0.048c0.011,0.018 0.023,0.038 0.036,0.06c0.013,0.021 0.025,0.044 0.037,0.068l-0.011,0c-0.002,-0.024 -0.003,-0.048 -0.004,-0.071c-0.001,-0.023 -0.002,-0.044 -0.002,-0.064c-0,-0.02 -0,-0.038 -0,-0.053l0,-0.481l0.069,0l0,0.728l-0.081,-0l-0.31,-0.46c-0.012,-0.018 -0.024,-0.037 -0.036,-0.056c-0.012,-0.019 -0.025,-0.041 -0.04,-0.065c-0.014,-0.024 -0.031,-0.053 -0.051,-0.086l0.014,0c0.001,0.03 0.002,0.057 0.003,0.083c0.001,0.026 0.002,0.049 0.002,0.07c0.001,0.021 0.001,0.038 0.001,0.053l0,0.46l-0.07,-0Z" style="fill-rule:nonzero;"/></g><g transform="matrix(400,0,0,400,771.058426,360.167484)"><path d="M0.083,-0l0,-0.546l0.066,0l0,0.546l-0.066,-0Zm0.034,-0.647c-0.013,0 -0.025,-0.005 -0.034,-0.014c-0.009,-0.009 -0.014,-0.02 -0.014,-0.033c0,-0.013 0.005,-0.024 0.014,-0.033c0.009,-0.009 0.021,-0.013 0.034,-0.013c0.013,0 0.025,0.004 0.034,0.013c0.009,0.009 0.014,0.02 0.014,0.033c0,0.013 -0.005,0.024 -0.014,0.033c-0.009,0.009 -0.021,0.014 -0.034,0.014Z" style="fill-rule:nonzero;"/></g><g transform="matrix(400,0,0,400,844.417801,360.167484)"><path d="M0.031,-0l0.214,-0.305l0,0.05l-0.204,-0.291l0.078,0l0.083,0.123c0.016,0.024 0.03,0.046 0.043,0.068c0.013,0.021 0.026,0.042 0.039,0.063l-0.034,0c0.014,-0.021 0.026,-0.042 0.038,-0.063c0.012,-0.021 0.026,-0.044 0.042,-0.068l0.084,-0.123l0.076,0l-0.204,0.294l0,-0.049l0.213,0.301l-0.077,-0l-0.098,-0.142c-0.015,-0.023 -0.029,-0.044 -0.041,-0.065c-0.012,-0.02 -0.024,-0.04 -0.037,-0.059l0.035,0c-0.013,0.019 -0.025,0.039 -0.036,0.059c-0.011,0.02 -0.024,0.042 -0.04,0.065l-0.098,0.142l-0.077,-0Z" style="fill-rule:nonzero;"/></g><g transform="matrix(400,0,0,400,1036.722489,360.167484)"><path d="M0.096,-0l0,-0.728l0.08,0l0.332,0.494c0.009,0.014 0.019,0.03 0.031,0.048c0.011,0.018 0.023,0.038 0.036,0.06c0.013,0.021 0.025,0.044 0.037,0.068l-0.011,0c-0.002,-0.024 -0.003,-0.048 -0.004,-0.071c-0.001,-0.023 -0.002,-0.044 -0.002,-0.064c-0,-0.02 -0,-0.038 -0,-0.053l0,-0.481l0.069,0l0,0.728l-0.081,-0l-0.31,-0.46c-0.012,-0.018 -0.024,-0.037 -0.036,-0.056c-0.012,-0.019 -0.025,-0.041 -0.04,-0.065c-0.014,-0.024 -0.031,-0.053 -0.051,-0.086l0.014,0c0.001,0.03 0.002,0.057 0.003,0.083c0.001,0.026 0.002,0.049 0.002,0.07c0.001,0.021 0.001,0.038 0.001,0.053l0,0.46l-0.07,-0Z" style="fill-rule:nonzero;"/></g><g transform="matrix(400,0,0,400,1320.433426,360.167484)"><path d="M0.305,0.012c-0.051,0 -0.095,-0.012 -0.133,-0.036c-0.037,-0.024 -0.066,-0.057 -0.086,-0.099c-0.02,-0.042 -0.031,-0.091 -0.031,-0.146c0,-0.055 0.01,-0.104 0.03,-0.146c0.02,-0.043 0.048,-0.076 0.084,-0.101c0.036,-0.024 0.078,-0.037 0.125,-0.037c0.03,0 0.059,0.005 0.086,0.016c0.028,0.011 0.053,0.028 0.075,0.05c0.022,0.022 0.04,0.051 0.052,0.085c0.013,0.034 0.019,0.074 0.019,0.121l0,0.029l-0.428,0l0,-0.057l0.393,0l-0.03,0.021c0,-0.039 -0.007,-0.074 -0.02,-0.105c-0.013,-0.031 -0.032,-0.055 -0.057,-0.073c-0.025,-0.018 -0.055,-0.027 -0.089,-0.027c-0.035,0 -0.065,0.009 -0.091,0.027c-0.026,0.018 -0.046,0.042 -0.061,0.072c-0.014,0.03 -0.022,0.063 -0.022,0.099l0,0.034c0,0.043 0.007,0.08 0.022,0.112c0.015,0.032 0.036,0.057 0.064,0.075c0.028,0.018 0.06,0.027 0.097,0.027c0.025,0 0.048,-0.004 0.067,-0.012c0.019,-0.008 0.036,-0.019 0.049,-0.032c0.013,-0.014 0.023,-0.028 0.03,-0.044l0.063,0.02c-0.008,0.023 -0.022,0.044 -0.041,0.063c-0.019,0.02 -0.042,0.035 -0.071,0.047c-0.028,0.012 -0.061,0.018 -0.098,0.018Z" style="fill-rule:nonzero;"/></g><g transform="matrix(400,0,0,400,1532.269364,360.167484)"><path d="M0.268,-0.546l0,0.058l-0.26,0l0,-0.058l0.26,0Zm-0.179,-0.13l0.066,0l0,0.547c0,0.027 0.006,0.047 0.018,0.06c0.012,0.013 0.03,0.018 0.055,0.015c0.005,0 0.01,-0.001 0.017,-0.002c0.007,-0.001 0.013,-0.002 0.019,-0.004l0.014,0.057c-0.007,0.002 -0.015,0.004 -0.024,0.005c-0.009,0.001 -0.017,0.002 -0.026,0.002c-0.044,0.003 -0.078,-0.007 -0.102,-0.031c-0.025,-0.024 -0.037,-0.057 -0.037,-0.099l0,-0.551Z" style="fill-rule:nonzero;"/></g><g transform="matrix(400,0,0,400,1651.605301,360.167484)"></g></svg>